<svg xmlns="http://www.w3.org/2000/svg" width="36" height="29" viewBox="0 0 36 29" fill="none">
<path d="M13.5183 14.0211C16.5569 15.3878 19.4889 16.9624 22.3369 18.6931C22.4689 18.7731 22.6983 18.7624 22.8023 18.6318C27.3823 12.9318 31.9689 7.21042 35.8263 0.983751C36.0289 0.655752 35.6263 0.25975 35.3009 0.458418C31.6503 2.67308 28.0023 4.88775 24.3529 7.10375C22.5676 8.18642 20.7996 9.30375 18.9556 10.2824C17.1583 11.2344 15.3276 12.1251 13.5103 13.0384C13.0676 13.2611 13.4569 13.9238 13.8996 13.7024C15.7156 12.7891 17.5449 11.8971 19.3423 10.9451C21.1889 9.96775 22.9569 8.85042 24.7409 7.76775C28.3903 5.55175 32.0396 3.33575 35.6889 1.12108C35.5129 0.946417 35.3383 0.770418 35.1623 0.595751C31.3409 6.76775 26.7983 12.4384 22.2583 18.0878C22.4129 18.0678 22.5689 18.0478 22.7236 18.0291C19.8769 16.2984 16.9449 14.7238 13.9063 13.3571C13.4583 13.1558 13.0676 13.8184 13.5183 14.0211Z" fill="#182D4D" stroke="#182D4D" stroke-width="0.176" stroke-miterlimit="10"/>
<path d="M13.2879 13.4471C13.4879 15.7737 13.5185 18.1071 13.4865 20.4417C13.4825 20.7111 13.8252 20.9497 14.0652 20.7737C14.6919 20.3124 15.6879 19.5684 16.9799 18.3537C17.4425 17.9177 17.8932 17.4671 18.3279 17.0031C19.3839 15.8791 19.1465 16.1324 18.8079 15.8364C18.4359 15.5124 17.8892 16.0537 18.2639 16.3804L18.5612 16.0711C18.5225 15.9804 18.2412 16.2444 18.2039 16.1537L18.1985 16.1951C18.2359 16.1057 17.9492 16.4097 17.9865 16.3191C17.2679 17.0337 16.9039 17.3844 16.1559 18.0697C15.3665 18.7937 14.4852 19.4017 13.6772 20.1084L14.0039 20.4417C14.0372 18.1084 14.2572 15.7737 14.0572 13.4471C14.0145 12.9591 13.2452 12.9537 13.2879 13.4471Z" fill="#182D4D" stroke="#182D4D" stroke-width="0.176" stroke-miterlimit="10"/>
<path d="M8.1772 11.7483C9.8812 14.7549 11.5839 17.7616 13.2865 20.7683C13.5319 21.2003 14.1959 20.8123 13.9519 20.3816C12.2479 17.3749 10.5439 14.3669 8.8412 11.3603C8.5972 10.9296 7.9332 11.3163 8.1772 11.7483Z" fill="#182D4D" stroke="#182D4D" stroke-width="0.176" stroke-miterlimit="10"/>
<path d="M8.79013 12.0608C17.7448 8.59149 26.6048 4.89282 35.4608 1.18215C35.9101 0.994151 35.7128 0.250152 35.2568 0.440818C26.4008 4.15148 17.5395 7.85148 8.5848 11.3195C8.1288 11.4968 8.32747 12.2395 8.79013 12.0608Z" fill="#182D4D" stroke="#182D4D" stroke-width="0.176" stroke-miterlimit="10"/>
<path d="M35.4232 0.226799C26.8312 1.72147 18.2099 3.08546 9.64187 4.7108C7.23654 5.16813 4.84187 5.68147 2.47654 6.31347C2.1992 6.38813 2.09654 6.75613 2.30587 6.95613C4.18054 8.76013 5.93787 10.7335 8.3152 11.8868C8.7592 12.1001 9.14854 11.4375 8.7032 11.2215C6.38187 10.0975 4.67787 8.17213 2.84854 6.41213C2.79254 6.6268 2.73654 6.84146 2.68054 7.0548C6.8552 5.9388 11.1152 5.20413 15.3699 4.46413C19.6659 3.71746 23.9605 2.98147 28.2565 2.2428C30.7139 1.8188 33.1712 1.3948 35.6272 0.968132C36.1139 0.884131 35.9072 0.142798 35.4232 0.226799Z" fill="#182D4D" stroke="#182D4D" stroke-width="0.176" stroke-miterlimit="10"/>
<path d="M1.0836 20.5101C2.70627 19.7795 4.34893 19.0981 5.9716 18.3688C6.2116 18.2608 6.2676 17.9128 6.14626 17.7035C6.00226 17.4581 5.72093 17.4221 5.48093 17.5301C3.8596 18.2595 2.2156 18.9408 0.592932 19.6715C0.352932 19.7795 0.295599 20.1275 0.419599 20.3355C0.562265 20.5821 0.843599 20.6181 1.0836 20.5101Z" fill="#182D4D" stroke="#182D4D" stroke-width="0.176" stroke-miterlimit="10"/>
<path d="M10.6065 22.2215C10.0932 23.0961 9.66386 24.0161 9.15053 24.8908C9.0212 25.1108 9.0932 25.4321 9.3252 25.5561C9.55853 25.6788 9.8532 25.6148 9.99053 25.3815C10.5025 24.5068 10.9332 23.5855 11.4452 22.7121C11.5732 22.4921 11.5025 22.1695 11.2705 22.0468C11.0385 21.9241 10.7439 21.9868 10.6065 22.2215Z" fill="#182D4D" stroke="#182D4D" stroke-width="0.176" stroke-miterlimit="10"/>
<path d="M18.0275 23.7863C18.0008 25.2956 17.8301 26.7956 17.8021 28.305C17.7915 28.9303 18.7635 28.9303 18.7741 28.305C18.8008 26.7956 18.9715 25.2956 18.9995 23.7863C19.0101 23.161 18.0381 23.161 18.0275 23.7863Z" fill="#182D4D" stroke="#182D4D" stroke-width="0.176" stroke-miterlimit="10"/>
</svg>